<mxfile host="app.diagrams.net" modified="2023-11-08T08:40:19.500Z" agent="Mozilla/5.0 (Macintosh; Intel Mac OS X 10_15_7) AppleWebKit/537.36 (KHTML, like Gecko) Chrome/118.0.0.0 Safari/537.36" version="22.0.8" etag="2vI4bxUJaGWatJb6JEwq" type="github">
  <diagram name="第 1 页" id="XB9W16Vr3MJojv8ndtlg">
    <mxGraphModel>
      <root>
        <mxCell id="0" />
        <mxCell id="1" parent="0" />
      </root>
    </mxGraphModel>
  </diagram>
</mxfile>
